HIERARCHY
ROOT Hips
{
	OFFSET 0.000000 0.000000 0.000000
	CHANNELS 6 Xposition Yposition Zposition Zrotation Yrotation Xrotation 
	JOINT LeftUpLeg_virtual
	{
		OFFSET 0.000000 0.000000 0.000000
		CHANNELS 3 Zrotation Yrotation Xrotation
		JOINT LeftUpLeg
		{
			OFFSET 8.479694 -4.795517 -0.379053
			CHANNELS 3 Zrotation Yrotation Xrotation
			JOINT LeftLeg
			{
				OFFSET 0.485052 -32.551468 0.112863
				CHANNELS 3 Zrotation Yrotation Xrotation
				JOINT LeftFoot
				{
					OFFSET 0.438033 -32.635670 -3.012641
					CHANNELS 3 Zrotation Yrotation Xrotation
					JOINT LeftToeBase
					{
						OFFSET 0.970169 -13.225353 11.864223
						CHANNELS 3 Zrotation Yrotation Xrotation
						End Site
						{
							OFFSET 0.000000 0.000000 0.000000
						}
					}
				}
			}
		}
	}
	JOINT RightUpLeg_virtual
	{
		OFFSET 0.000000 0.000000 0.000000
		CHANNELS 3 Zrotation Yrotation Xrotation
		JOINT RightUpLeg
		{
			OFFSET -8.479694 -4.795517 -0.379053
			CHANNELS 3 Zrotation Yrotation Xrotation
			JOINT RightLeg
			{
				OFFSET -0.484100 -32.551483 0.112903
				CHANNELS 3 Zrotation Yrotation Xrotation
				JOINT RightFoot
				{
					OFFSET -0.438985 -32.635651 -3.012681
					CHANNELS 3 Zrotation Yrotation Xrotation
					JOINT RightToeBase
					{
						OFFSET -0.970169 -13.225354 11.864223
						CHANNELS 3 Zrotation Yrotation Xrotation
						End Site
						{
							OFFSET 0.000000 0.000000 0.000000
						}
					}
				}
			}
		}
	}
	JOINT Spine_virtual
	{
		OFFSET 0.000000 0.000000 0.000000
		CHANNELS 3 Zrotation Yrotation Xrotation
		JOINT Spine
		{
			OFFSET 0.000000 7.722015 1.166203
			CHANNELS 3 Zrotation Yrotation Xrotation
			JOINT Spine1
			{
				OFFSET 0.000000 12.024086 0.248766
				CHANNELS 3 Zrotation Yrotation Xrotation
				JOINT Spine2
				{
					OFFSET -0.000000 11.503036 -0.491240
					CHANNELS 3 Zrotation Yrotation Xrotation
					JOINT Neck_virtual
					{
						OFFSET 0.000000 0.000000 0.000000
						CHANNELS 3 Zrotation Yrotation Xrotation
						JOINT Neck
						{
							OFFSET 0.000000 18.430687 -3.123054
							CHANNELS 3 Zrotation Yrotation Xrotation
							JOINT Head
							{
								OFFSET -0.000000 9.051071 1.034021
								CHANNELS 3 Zrotation Yrotation Xrotation
								End Site
								{
									OFFSET 0.000000 0.000000 0.000000
								}
							}
						}
					}
					JOINT LeftShoulder_virtual
					{
						OFFSET 0.000000 0.000000 0.000000
						CHANNELS 3 Zrotation Yrotation Xrotation
						JOINT LeftShoulder
						{
							OFFSET 6.197824 13.665230 -4.064723
							CHANNELS 3 Zrotation Yrotation Xrotation
							JOINT LeftArm
							{
								OFFSET 7.778132 -0.187073 -1.709282
								CHANNELS 3 Zrotation Yrotation Xrotation
								JOINT LeftForeArm
								{
									OFFSET 21.954697 0.000000 -2.041093
									CHANNELS 3 Zrotation Yrotation Xrotation
									JOINT LeftHand
									{
										OFFSET 22.992908 0.000000 -0.870901
										CHANNELS 3 Zrotation Yrotation Xrotation
										End Site
										{
											OFFSET 0.000000 0.000000 0.000000
										}
									}
								}
							}
						}
					}
					JOINT RightShoulder_virtual
					{
						OFFSET 0.000000 0.000000 0.000000
						CHANNELS 3 Zrotation Yrotation Xrotation
						JOINT RightShoulder
						{
							OFFSET -6.197824 13.665230 -4.064723
							CHANNELS 3 Zrotation Yrotation Xrotation
							JOINT RightArm
							{
								OFFSET -7.778132 -0.187073 -1.709282
								CHANNELS 3 Zrotation Yrotation Xrotation
								JOINT RightForeArm
								{
									OFFSET -21.954697 0.000000 -2.041093
									CHANNELS 3 Zrotation Yrotation Xrotation
									JOINT RightHand
									{
										OFFSET -22.992908 0.000000 -0.870901
										CHANNELS 3 Zrotation Yrotation Xrotation
										End Site
										{
											OFFSET 0.000000 0.000000 0.000000
										}
									}
								}
							}
						}
					}
				}
			}
		}
	}
}
MOTION
Frames: 10
Frame Time: 0.033333
-16.013380 79.704124 11.928973 -179.250870 43.044846 -179.385165 -2.977641 2.607982 9.903218 -8.584750 13.705250 -30.571134 8.690019 4.038529 33.484330 -3.115681 -10.137811 -12.205452 0.000000 0.000000 0.000000 0.369063 2.012017 10.875739 -4.050797 2.833249 -38.652525 -1.390377 7.128999 38.767925 11.670265 3.678801 4.185428 0.000000 0.000000 0.000000 2.215352 3.303785 -0.841381 3.002180 1.277759 4.784172 -1.327346 -4.127656 17.786817 -0.015067 -0.182229 0.031830 -1.227799 -3.608009 19.683979 -1.324320 -4.255876 1.397557 0.000000 0.000000 0.000000 -0.070607 -3.355577 16.051715 5.031836 -8.997751 0.964167 -79.502815 -48.750854 7.371617 -131.520784 -81.742741 148.126053 0.000000 0.000000 0.000000 -3.615569 -1.283628 15.359600 24.536719 23.004927 1.530186 66.579086 38.921058 3.486979 -162.295663 67.029544 -161.345297 0.000000 0.000000 0.000000 
-16.068445 79.886467 11.759212 -179.231677 43.783459 -179.390971 -3.111392 2.442197 10.170087 -8.715342 14.164652 -30.537298 8.785800 4.177844 32.976505 -2.989078 -10.145200 -12.044422 0.000000 0.000000 0.000000 0.363849 1.790832 11.091408 -4.225934 3.291206 -38.662764 -1.441800 7.150169 38.147098 11.975797 3.508746 4.678515 0.000000 0.000000 0.000000 2.214822 2.995182 -0.437265 3.208465 1.365409 4.508264 -1.196335 -4.113578 17.565271 -0.036489 -0.205119 0.058597 -1.077326 -3.557044 19.584526 -0.731270 -4.546466 1.686946 0.000000 0.000000 0.000000 -0.050638 -3.275916 15.995528 4.535544 -9.432025 0.884440 -78.149228 -48.529020 5.826437 -136.934064 -81.591295 153.462849 0.000000 0.000000 0.000000 -3.580744 -1.192459 15.283696 24.781620 23.617421 2.095545 67.775994 40.207357 5.470851 -161.618477 67.189841 -160.497028 0.000000 0.000000 0.000000 
-16.104637 80.077484 11.634025 -179.292643 44.500694 -179.537178 -3.282785 2.068447 10.251247 -8.787771 14.552295 -30.317386 8.978496 4.296030 32.623941 -2.754158 -9.928670 -11.783862 0.000000 0.000000 0.000000 0.311401 1.310604 11.032164 -4.377619 3.756798 -38.470873 -1.425478 7.172359 37.590240 12.421969 3.521335 5.197312 0.000000 0.000000 0.000000 2.187616 2.433658 -0.139229 3.370610 1.531398 4.365091 -1.059158 -4.071439 17.530685 0.017164 -0.204207 -0.014099 -1.006150 -3.468591 19.484460 -0.173529 -4.807619 2.084659 0.000000 0.000000 0.000000 -0.086658 -3.236441 15.806497 3.830578 -9.756594 0.944098 -77.165401 -47.934165 5.152555 -141.516411 -81.374245 158.041138 0.000000 0.000000 0.000000 -3.558391 -1.126145 15.076666 24.954545 24.099841 2.604768 69.031725 41.315609 6.682609 -160.114674 67.710097 -159.123177 0.000000 0.000000 0.000000 
-16.099478 80.185654 11.541139 -179.379250 45.321092 -179.665094 -3.416227 1.836170 10.089386 -8.819105 14.884569 -29.994332 9.279871 4.345966 32.551070 -2.522696 -9.674405 -11.588861 0.000000 0.000000 0.000000 0.210801 0.914007 10.738892 -4.404355 4.156285 -38.159543 -1.362676 7.150369 37.206766 12.906325 3.656143 5.612806 0.000000 0.000000 0.000000 2.136441 1.975322 0.029878 3.499302 1.679847 4.373126 -0.980733 -4.016319 17.231744 -0.029597 -0.140385 -0.002462 -0.817215 -3.359852 19.347662 0.322830 -5.062613 2.416631 0.000000 0.000000 0.000000 0.040904 -3.268015 15.647496 2.941641 -9.967599 0.979840 -76.893955 -46.797943 5.340285 -143.301549 -81.449029 159.919754 0.000000 0.000000 0.000000 -3.426821 -1.056369 14.968674 24.773130 24.411975 2.940426 69.902915 41.793627 6.851930 -158.243612 68.615111 -157.644878 0.000000 0.000000 0.000000 
-16.048998 80.192764 11.432641 -179.387665 46.079683 -179.645286 -3.511944 1.854676 9.756288 -8.809559 15.189376 -29.715544 9.612115 4.343787 32.733026 -2.437501 -9.599529 -11.600084 0.000000 0.000000 0.000000 0.074021 0.808020 10.334112 -4.303752 4.430676 -37.810438 -1.314135 7.085916 37.032896 13.263016 3.791266 5.856330 0.000000 0.000000 0.000000 2.066177 1.880511 -0.020488 3.564057 1.820770 4.354664 -0.866668 -4.036874 17.037074 -0.052208 -0.227243 0.043940 -0.632545 -3.353461 19.078171 0.777269 -5.337608 2.757047 0.000000 0.000000 0.000000 0.154147 -3.113028 15.411794 2.282799 -10.284413 1.098409 -77.047853 -45.392385 5.881258 -143.350972 -81.694042 160.155409 0.000000 0.000000 0.000000 -3.290363 -1.051790 14.769377 24.386847 24.430200 3.260477 70.389232 41.543331 6.505029 -155.714625 69.410828 -155.740225 0.000000 0.000000 0.000000 
-15.963507 80.132637 11.325262 -179.421215 46.831100 -179.655668 -3.596263 2.161973 9.408148 -8.792767 15.413743 -29.468250 9.923190 4.331280 33.104930 -2.402694 -9.559585 -11.789495 0.000000 0.000000 0.000000 -0.097009 1.061848 10.001058 -4.174684 4.590203 -37.477333 -1.293975 7.051387 37.019830 13.529621 3.990941 5.897000 0.000000 0.000000 0.000000 1.941047 2.055835 -0.081840 3.518259 1.915241 4.349129 -0.706500 -4.062840 16.830727 -0.025040 -0.187140 0.009324 -0.494655 -3.351031 18.876913 1.107770 -5.541588 3.062162 0.000000 0.000000 0.000000 0.251015 -3.067266 15.267937 1.725112 -10.324813 1.260501 -77.148967 -44.028304 6.727071 -142.770242 -82.245518 159.862777 0.000000 0.000000 0.000000 -3.161812 -1.036753 14.514840 23.943882 24.140645 3.452337 70.690532 40.306261 5.795413 -154.068495 70.123824 -154.844514 0.000000 0.000000 0.000000 
-15.882523 80.061913 11.183236 -179.434861 47.400830 -179.684969 -3.691383 2.513485 9.181162 -8.789881 15.552476 -29.334119 10.220714 4.291950 33.547000 -2.391065 -9.545696 -12.022319 0.000000 0.000000 0.000000 -0.267128 1.417656 9.805313 -4.086721 4.591187 -37.196835 -1.248993 6.933707 37.042472 13.745064 4.233396 5.773743 0.000000 0.000000 0.000000 1.860125 2.302501 -0.146441 3.398403 1.938948 4.329426 -0.531294 -4.127768 16.586939 -0.022137 -0.151490 0.055737 -0.278630 -3.450642 18.565286 1.322033 -5.736512 3.316405 0.000000 0.000000 0.000000 0.450342 -3.183070 14.959887 1.586548 -10.178606 1.370089 -77.328356 -42.769746 7.747638 -140.979804 -82.726732 158.471440 0.000000 0.000000 0.000000 -2.973198 -1.240816 14.222122 23.349374 23.653592 3.634221 70.938051 38.749357 5.282538 -152.771688 70.618255 -154.448363 0.000000 0.000000 0.000000 
-15.824561 80.028961 11.007016 -179.472810 47.849952 -179.800645 -3.820618 2.789189 9.155386 -8.837692 15.594147 -29.262118 10.464231 4.272188 33.933923 -2.362624 -9.468777 -12.149637 0.000000 0.000000 0.000000 -0.428241 1.714156 9.777862 -4.095331 4.483683 -36.971261 -1.187152 6.807994 37.064653 13.917752 4.491822 5.534596 0.000000 0.000000 0.000000 1.793681 2.529369 -0.113227 3.229803 1.958281 4.299184 -0.333570 -4.265422 16.287981 -0.004607 -0.203416 0.021428 -0.075558 -3.535136 18.250122 1.318428 -5.819459 3.456408 0.000000 0.000000 0.000000 0.734244 -3.315245 14.604722 1.759571 -10.155248 1.554614 -77.140874 -41.588960 8.867740 -139.502953 -83.098001 157.517577 0.000000 0.000000 0.000000 -2.765728 -1.184824 13.824271 22.871611 22.880980 3.767566 71.147471 37.180811 4.901939 -152.341769 71.070946 -154.945806 0.000000 0.000000 0.000000 
-15.731496 80.054947 10.778166 -179.393744 48.065277 -179.793323 -3.889124 2.982039 9.235970 -8.896501 15.506918 -29.240135 10.690088 4.173977 34.172768 -2.312680 -9.363944 -12.153812 0.000000 0.000000 0.000000 -0.494499 1.953882 9.862053 -4.151583 4.276310 -36.793246 -1.106942 6.571340 37.099573 13.947163 4.648094 5.185396 0.000000 0.000000 0.000000 1.905613 2.788987 -0.059198 3.094104 1.975018 4.199693 -0.195307 -4.398200 15.957531 0.002650 -0.255789 -0.047441 0.138011 -3.742777 17.944333 1.204674 -5.903212 3.479406 0.000000 0.000000 0.000000 0.989994 -3.426642 14.251084 2.071593 -10.134662 1.702676 -76.932164 -40.647316 10.458275 -137.483758 -83.316628 156.122470 0.000000 0.000000 0.000000 -2.527315 -1.381662 13.573887 22.539978 22.241512 3.768270 71.043912 35.909484 4.854616 -152.422201 71.673772 -155.940199 0.000000 0.000000 0.000000 
-15.625882 80.116707 10.488203 -179.560878 48.598285 -179.948150 -3.961601 3.259913 9.408374 -9.054896 15.445875 -29.259929 10.802044 4.130032 34.248085 -2.215040 -9.155882 -12.044830 0.000000 0.000000 0.000000 -0.554752 2.213103 9.937775 -4.266573 4.146508 -36.661727 -1.066995 6.556804 37.166765 14.013545 4.776142 4.898212 0.000000 0.000000 0.000000 1.803475 2.999824 0.002952 3.001867 2.067735 4.028581 -0.008167 -4.391690 15.594015 0.007138 -0.156093 -0.017688 0.245538 -3.678722 17.570503 0.807196 -5.788264 3.391399 0.000000 0.000000 0.000000 1.135244 -3.415623 14.010812 2.342409 -10.045409 1.844164 -76.238783 -39.751172 12.176344 -132.957091 -83.612662 152.263850 0.000000 0.000000 0.000000 -2.365126 -1.380001 13.110310 22.219297 21.653033 3.818369 70.915184 35.015911 5.261864 -152.559488 72.427019 -156.964564 0.000000 0.000000 0.000000 
